<mxfile host="app.diagrams.net" modified="2022-06-28T02:06:58.914Z" agent="5.0 (Windows NT 10.0; Win64; x64) AppleWebKit/537.36 (KHTML, like Gecko) Chrome/103.0.5060.53 Safari/537.36 Edg/103.0.1264.37" etag="7irsPVTo5G331_pM8bUh" version="20.0.2" type="github">
  <diagram id="vq4ZUjBqRkl3Qo-dFUA6" name="Page-1">
    <mxGraphModel dx="1422" dy="1923" grid="1" gridSize="10" guides="1" tooltips="1" connect="1" arrows="1" fold="1" page="1" pageScale="1" pageWidth="827" pageHeight="1169" math="0" shadow="0">
      <root>
        <mxCell id="0" />
        <mxCell id="1" parent="0" />
        <mxCell id="SdjU2ew_yaMc-zdotOPO-4" value="Gerente" style="swimlane;fontStyle=1;align=center;verticalAlign=top;childLayout=stackLayout;horizontal=1;startSize=26;horizontalStack=0;resizeParent=1;resizeParentMax=0;resizeLast=0;collapsible=1;marginBottom=0;" parent="1" vertex="1">
          <mxGeometry x="50" y="-680" width="160" height="86" as="geometry" />
        </mxCell>
        <mxCell id="SdjU2ew_yaMc-zdotOPO-5" value="+ field: type" style="text;strokeColor=none;fillColor=none;align=left;verticalAlign=top;spacingLeft=4;spacingRight=4;overflow=hidden;rotatable=0;points=[[0,0.5],[1,0.5]];portConstraint=eastwest;" parent="SdjU2ew_yaMc-zdotOPO-4" vertex="1">
          <mxGeometry y="26" width="160" height="26" as="geometry" />
        </mxCell>
        <mxCell id="SdjU2ew_yaMc-zdotOPO-6" value="" style="line;strokeWidth=1;fillColor=none;align=left;verticalAlign=middle;spacingTop=-1;spacingLeft=3;spacingRight=3;rotatable=0;labelPosition=right;points=[];portConstraint=eastwest;" parent="SdjU2ew_yaMc-zdotOPO-4" vertex="1">
          <mxGeometry y="52" width="160" height="8" as="geometry" />
        </mxCell>
        <mxCell id="SdjU2ew_yaMc-zdotOPO-7" value="+ method(type): type" style="text;strokeColor=none;fillColor=none;align=left;verticalAlign=top;spacingLeft=4;spacingRight=4;overflow=hidden;rotatable=0;points=[[0,0.5],[1,0.5]];portConstraint=eastwest;" parent="SdjU2ew_yaMc-zdotOPO-4" vertex="1">
          <mxGeometry y="60" width="160" height="26" as="geometry" />
        </mxCell>
        <mxCell id="SdjU2ew_yaMc-zdotOPO-8" value="&lt;p style=&quot;margin:0px;margin-top:4px;text-align:center;&quot;&gt;&lt;i&gt;&amp;lt;&amp;lt;Interface&amp;gt;&amp;gt;&lt;/i&gt;&lt;br&gt;&lt;b&gt;Usuário&lt;/b&gt;&lt;/p&gt;&lt;hr size=&quot;1&quot;&gt;&lt;p style=&quot;margin:0px;margin-left:4px;&quot;&gt;+ Id: int&lt;br&gt;+ celular: String&lt;/p&gt;&lt;p style=&quot;margin:0px;margin-left:4px;&quot;&gt;+ nome: String&lt;/p&gt;&lt;p style=&quot;margin:0px;margin-left:4px;&quot;&gt;+ senha: String&lt;/p&gt;&lt;p style=&quot;margin:0px;margin-left:4px;&quot;&gt;+ email: String&lt;/p&gt;&lt;p style=&quot;margin:0px;margin-left:4px;&quot;&gt;&lt;br&gt;&lt;/p&gt;&lt;hr size=&quot;1&quot;&gt;&lt;p style=&quot;margin: 0px 0px 0px 4px;&quot;&gt;+ getId(): int&lt;br&gt;+ getCelular(): String&lt;/p&gt;&lt;p style=&quot;margin: 0px 0px 0px 4px;&quot;&gt;+ getNome(): String&lt;/p&gt;&lt;p style=&quot;margin: 0px 0px 0px 4px;&quot;&gt;+ getSenha(): String&lt;/p&gt;&lt;p style=&quot;margin: 0px 0px 0px 4px;&quot;&gt;+ getEmail(): String&lt;/p&gt;&lt;p style=&quot;margin: 0px 0px 0px 4px;&quot;&gt;+ setId(int): int&lt;br&gt;+ setCelular(String): Boolean&lt;/p&gt;&lt;p style=&quot;margin: 0px 0px 0px 4px;&quot;&gt;+ setNome(String): Boolean&lt;/p&gt;&lt;p style=&quot;margin: 0px 0px 0px 4px;&quot;&gt;+ setSenha(String): Boolean&lt;/p&gt;&lt;p style=&quot;margin: 0px 0px 0px 4px;&quot;&gt;+ setEmail(String): Boolean&lt;/p&gt;" style="verticalAlign=top;align=left;overflow=fill;fontSize=12;fontFamily=Helvetica;html=1;" parent="1" vertex="1">
          <mxGeometry x="60" y="-1120" width="270" height="310" as="geometry" />
        </mxCell>
        <mxCell id="gne2Y5jS3kpcWcRq-PZH-1" value="Cliente&#xa;" style="swimlane;fontStyle=1;align=center;verticalAlign=top;childLayout=stackLayout;horizontal=1;startSize=26;horizontalStack=0;resizeParent=1;resizeParentMax=0;resizeLast=0;collapsible=1;marginBottom=0;" vertex="1" parent="1">
          <mxGeometry x="260" y="-690" width="160" height="86" as="geometry" />
        </mxCell>
        <mxCell id="gne2Y5jS3kpcWcRq-PZH-2" value="+ field: type" style="text;strokeColor=none;fillColor=none;align=left;verticalAlign=top;spacingLeft=4;spacingRight=4;overflow=hidden;rotatable=0;points=[[0,0.5],[1,0.5]];portConstraint=eastwest;" vertex="1" parent="gne2Y5jS3kpcWcRq-PZH-1">
          <mxGeometry y="26" width="160" height="26" as="geometry" />
        </mxCell>
        <mxCell id="gne2Y5jS3kpcWcRq-PZH-3" value="" style="line;strokeWidth=1;fillColor=none;align=left;verticalAlign=middle;spacingTop=-1;spacingLeft=3;spacingRight=3;rotatable=0;labelPosition=right;points=[];portConstraint=eastwest;" vertex="1" parent="gne2Y5jS3kpcWcRq-PZH-1">
          <mxGeometry y="52" width="160" height="8" as="geometry" />
        </mxCell>
        <mxCell id="gne2Y5jS3kpcWcRq-PZH-4" value="+ method(type): type" style="text;strokeColor=none;fillColor=none;align=left;verticalAlign=top;spacingLeft=4;spacingRight=4;overflow=hidden;rotatable=0;points=[[0,0.5],[1,0.5]];portConstraint=eastwest;" vertex="1" parent="gne2Y5jS3kpcWcRq-PZH-1">
          <mxGeometry y="60" width="160" height="26" as="geometry" />
        </mxCell>
        <mxCell id="gne2Y5jS3kpcWcRq-PZH-5" value="Funcionário&#xa;" style="swimlane;fontStyle=1;align=center;verticalAlign=top;childLayout=stackLayout;horizontal=1;startSize=26;horizontalStack=0;resizeParent=1;resizeParentMax=0;resizeLast=0;collapsible=1;marginBottom=0;" vertex="1" parent="1">
          <mxGeometry x="50" y="-580" width="160" height="86" as="geometry" />
        </mxCell>
        <mxCell id="gne2Y5jS3kpcWcRq-PZH-6" value="+ field: type" style="text;strokeColor=none;fillColor=none;align=left;verticalAlign=top;spacingLeft=4;spacingRight=4;overflow=hidden;rotatable=0;points=[[0,0.5],[1,0.5]];portConstraint=eastwest;" vertex="1" parent="gne2Y5jS3kpcWcRq-PZH-5">
          <mxGeometry y="26" width="160" height="26" as="geometry" />
        </mxCell>
        <mxCell id="gne2Y5jS3kpcWcRq-PZH-7" value="" style="line;strokeWidth=1;fillColor=none;align=left;verticalAlign=middle;spacingTop=-1;spacingLeft=3;spacingRight=3;rotatable=0;labelPosition=right;points=[];portConstraint=eastwest;" vertex="1" parent="gne2Y5jS3kpcWcRq-PZH-5">
          <mxGeometry y="52" width="160" height="8" as="geometry" />
        </mxCell>
        <mxCell id="gne2Y5jS3kpcWcRq-PZH-8" value="+ method(type): type" style="text;strokeColor=none;fillColor=none;align=left;verticalAlign=top;spacingLeft=4;spacingRight=4;overflow=hidden;rotatable=0;points=[[0,0.5],[1,0.5]];portConstraint=eastwest;" vertex="1" parent="gne2Y5jS3kpcWcRq-PZH-5">
          <mxGeometry y="60" width="160" height="26" as="geometry" />
        </mxCell>
        <mxCell id="gne2Y5jS3kpcWcRq-PZH-9" value="Cozinheiro&#xa;" style="swimlane;fontStyle=1;align=center;verticalAlign=top;childLayout=stackLayout;horizontal=1;startSize=26;horizontalStack=0;resizeParent=1;resizeParentMax=0;resizeLast=0;collapsible=1;marginBottom=0;" vertex="1" parent="1">
          <mxGeometry x="260" y="-580" width="160" height="86" as="geometry" />
        </mxCell>
        <mxCell id="gne2Y5jS3kpcWcRq-PZH-10" value="+ field: type" style="text;strokeColor=none;fillColor=none;align=left;verticalAlign=top;spacingLeft=4;spacingRight=4;overflow=hidden;rotatable=0;points=[[0,0.5],[1,0.5]];portConstraint=eastwest;" vertex="1" parent="gne2Y5jS3kpcWcRq-PZH-9">
          <mxGeometry y="26" width="160" height="26" as="geometry" />
        </mxCell>
        <mxCell id="gne2Y5jS3kpcWcRq-PZH-11" value="" style="line;strokeWidth=1;fillColor=none;align=left;verticalAlign=middle;spacingTop=-1;spacingLeft=3;spacingRight=3;rotatable=0;labelPosition=right;points=[];portConstraint=eastwest;" vertex="1" parent="gne2Y5jS3kpcWcRq-PZH-9">
          <mxGeometry y="52" width="160" height="8" as="geometry" />
        </mxCell>
        <mxCell id="gne2Y5jS3kpcWcRq-PZH-12" value="+ method(type): type" style="text;strokeColor=none;fillColor=none;align=left;verticalAlign=top;spacingLeft=4;spacingRight=4;overflow=hidden;rotatable=0;points=[[0,0.5],[1,0.5]];portConstraint=eastwest;" vertex="1" parent="gne2Y5jS3kpcWcRq-PZH-9">
          <mxGeometry y="60" width="160" height="26" as="geometry" />
        </mxCell>
        <mxCell id="gne2Y5jS3kpcWcRq-PZH-13" value="Extends" style="endArrow=block;endSize=16;endFill=0;html=1;rounded=0;exitX=0.5;exitY=0;exitDx=0;exitDy=0;entryX=0.5;entryY=1;entryDx=0;entryDy=0;edgeStyle=orthogonalEdgeStyle;" edge="1" parent="1" source="SdjU2ew_yaMc-zdotOPO-4" target="SdjU2ew_yaMc-zdotOPO-8">
          <mxGeometry width="160" relative="1" as="geometry">
            <mxPoint x="550" y="-760" as="sourcePoint" />
            <mxPoint x="710" y="-760" as="targetPoint" />
          </mxGeometry>
        </mxCell>
        <mxCell id="gne2Y5jS3kpcWcRq-PZH-14" value="Extends" style="endArrow=block;endSize=16;endFill=0;html=1;rounded=0;exitX=0.5;exitY=0;exitDx=0;exitDy=0;entryX=0.75;entryY=1;entryDx=0;entryDy=0;edgeStyle=orthogonalEdgeStyle;" edge="1" parent="1" source="gne2Y5jS3kpcWcRq-PZH-1" target="SdjU2ew_yaMc-zdotOPO-8">
          <mxGeometry width="160" relative="1" as="geometry">
            <mxPoint x="550" y="-760" as="sourcePoint" />
            <mxPoint x="710" y="-760" as="targetPoint" />
          </mxGeometry>
        </mxCell>
        <mxCell id="gne2Y5jS3kpcWcRq-PZH-16" value="Extends" style="endArrow=block;endSize=16;endFill=0;html=1;rounded=0;exitX=0;exitY=0.5;exitDx=0;exitDy=0;entryX=0.681;entryY=1.006;entryDx=0;entryDy=0;edgeStyle=orthogonalEdgeStyle;entryPerimeter=0;" edge="1" parent="1" source="gne2Y5jS3kpcWcRq-PZH-10" target="SdjU2ew_yaMc-zdotOPO-8">
          <mxGeometry width="160" relative="1" as="geometry">
            <mxPoint x="271.5" y="-530" as="sourcePoint" />
            <mxPoint x="160" y="-590" as="targetPoint" />
          </mxGeometry>
        </mxCell>
        <mxCell id="gne2Y5jS3kpcWcRq-PZH-17" value="Extends" style="endArrow=block;endSize=16;endFill=0;html=1;rounded=0;exitX=1;exitY=0.923;exitDx=0;exitDy=0;entryX=0.644;entryY=1.016;entryDx=0;entryDy=0;edgeStyle=orthogonalEdgeStyle;entryPerimeter=0;exitPerimeter=0;" edge="1" parent="1" source="gne2Y5jS3kpcWcRq-PZH-6" target="SdjU2ew_yaMc-zdotOPO-8">
          <mxGeometry width="160" relative="1" as="geometry">
            <mxPoint x="290" y="-511" as="sourcePoint" />
            <mxPoint x="243.8699999999999" y="-728.1399999999999" as="targetPoint" />
          </mxGeometry>
        </mxCell>
      </root>
    </mxGraphModel>
  </diagram>
</mxfile>
